<?xml version="1.0" encoding="UTF-8" standalone="no"?>
<!DOCTYPE svg PUBLIC "-//W3C//DTD SVG 1.1//EN" "http://www.w3.org/Graphics/SVG/1.1/DTD/svg11.dtd">
<svg width="100%" height="100%" viewBox="0 0 268 268" version="1.1" xmlns="http://www.w3.org/2000/svg" xmlns:xlink="http://www.w3.org/1999/xlink" xml:space="preserve" xmlns:serif="http://www.serif.com/" style="fill-rule:evenodd;clip-rule:evenodd;stroke-linejoin:round;stroke-miterlimit:2;">
    <g transform="matrix(1,0,0,1,-265.573,-266.895)">
        <path d="M476.467,290.778C416.549,248.832 332.728,263.618 290.778,323.533C283.575,334.438 279.733,347.222 279.733,360.291C279.733,396.875 309.838,426.979 346.422,426.979C367.53,426.979 387.431,416.958 400,400C412.466,382.199 432.879,371.574 454.611,371.574C491.186,371.574 521.282,401.67 521.282,438.244C521.282,451.926 517.07,465.282 509.222,476.489C524.916,454.077 533.338,427.369 533.338,400.008C533.338,356.538 512.079,315.707 476.467,290.778Z" style="fill:rgb(198,12,48);fill-rule:nonzero;"/>
        <path d="M492.844,383.644C462.891,362.667 420.982,370.05 400,400C387.443,417.073 367.471,427.176 346.277,427.176C309.693,427.176 279.588,397.072 279.588,360.487C279.588,347.329 283.482,334.461 290.778,323.511C274.394,346.219 265.573,373.522 265.573,401.523C265.573,474.668 325.762,534.857 398.907,534.857C443.036,534.857 484.403,512.948 509.2,476.444C517.051,465.244 521.265,451.893 521.265,438.215C521.265,416.495 510.641,396.095 492.844,383.644Z" style="fill:rgb(0,52,120);fill-rule:nonzero;"/>
    </g>
</svg>
